<svg xmlns="http://www.w3.org/2000/svg" xmlns:xlink="http://www.w3.org/1999/xlink" width="1457.3" height="1457.3" viewBox="0 0 1093 1093"><circle cx="547" cy="547" fill="#3a62a8" r="546"/><g fill="#f5e347"><path d="M484 742c3.6 4 4.2 9.8 4.2 15-.1 2.4-.3 5.5-3 6.4-2.3-5.4-7.2-18.4-7.7-4.4l1.3 151c-.1 3-3.8 3.2-6 4l-4-137c-.3-9.4.3-18.8 1.3-28 .7-8.2 8-13.6 14-7zm13-681c1.6-3 3.5-5.8 5.6-8.5 4.3 8.4 5.6 18 10 26.3 1.7 3 6 2.6 8.7 1 4-3.2 5-8.7 5.5-13.6h2c.7 5.3 2 11.5 7.2 14 6.4-.6 12.8-.2 19.3-.8 2.8-.5 6-1.7 7.2-4.6-5-1.5-10-3.4-15.3-2.8-3 .5-3.6 4-5.2 6-2-3.7-.8-8.2.3-12 1-3.4 4.5-5.3 8-5 6 .4 12 2 17.8 3 1 .5 3 .2 3 1.8-.1 3.5-1 6.8-1.4 10.2-2 1-4.5 1.4-6 3-3.7 3.8-5 9.4-9.5 12.4-5 3.5-11.3 3-17 3.3-4.2 0-6.8-3.7-8.7-7-1.3-.1-1.5 2-2.3 2.7-4 7-15.8 6.7-19-.7-2.3-5-4-10.4-5.7-15.7-2.5 1.6-5.3 3-7 5.6-1 1.4 1.2 1.8 2 2.3l8.8 3.4c-1 4-2.5 7.8-4 11.6-4.7-2-10.4-4-13-8.5.5-5.7.1-12.6 5-16.6l6-5.7-2-5.8z"/><path d="M660 65c.4-4.7 6-5 9.5-6.7-1.8 11-5.8 21.7-7 33-.5 2.6 2 4 4.3 4.3a56 56 0 0 1 9 2.4c1-7.3 7.7-11.6 13.3-15.4 2.8-2 7-3.2 9.8-.6 3.6 3.3 4.2 8.6 3.8 13.2-5.2-2.6-10.7-6.2-16.8-4.7-3.2 1.4-2.5 5.7-.7 8 3.3 4.8 9.6 5.6 14.7 7.4l-6.3 12.6a31 31 0 0 1-7.4-5c-7.5 1.3-14.5-1.5-21.6-3.3-5-2-7.4-7.2-8.4-12-3 4.4-7.8 8.3-13.5 7.2-5-.3-5-7-9-9-4.2-2.4-9.2-3.3-14-3.6-1.4-.4-2.2 1-3 2 5 2.6 10.8 2.4 15.6 5 3 1.7 1.8 5.6.8 8.2-3.2 9-13.6 13.2-22.6 12.8-6.8-.4-14.6-1.4-19.3-7-4.2-5.3-2.7-12.5-.4-18.3 2-4.3 3.7-8.8 7-12.4l1.7.6c-1 5-4.5 9.5-3.6 14.8.3 3.4 3.5 5.4 6.6 6 6.6 1.7 13.4 2.4 20.2 2.8 2.5.2 5-.3 7.5-1-4.2-5.7-13.8-1.5-18.3-7.2-2.2-5.2 1.6-12.8 7.8-12.3 10 .6 20 3.2 30 5 3 0 5-3 5.7-5.7 1.7-7 3-13.8 4.6-20.8zM443 80c.1-4.7 3-9.7 8-10.6 3.7-1 7.4 1 9.8 3.7 5.2 5.6 8.6 13.3 8 21-.3 4-3.2 8.6-7.7 8.5-4.6.6-8-3-11.4-5.3-2 1-2 4-3.5 5.7-4 4.4-12.4 6.7-16.6 1.2-.8 2.7-1.2 6.5-4.4 7.3-3 .6-5.3-2-7.2-4-.5 2.6-1 6-4 7s-5.5-2-7.4-4c-1.6 3-4 5.4-6.3 7.6-1.8 2-5 1.6-7.2 1-4-1.2-7-4-10.4-6-.3 3.5 0 7.4-2.2 10.4-2.7 3.8-7 6-11.5 7.3-3.8.7-7-1.6-10-3.8-.3 3.4-.6 7.3-3.4 9.6-4.4 4-11.2 2.2-15.2-1.6-.1 3-.2 6.2-2 8.7-3 4.3-8.3 6.5-13.4 7.5-5 .7-8.7-3.2-11-7L300 122c-3-4-.6-9.3 1.5-13 4.5 7 8 14.3 12.3 21.3 1.7 2.6 3 6 6 7.4 4-.4 7.3-2.8 10.2-5.4 3.2-4.5 1.3-10.2-.1-15l1-2c3 3.7 5.8 8.6 11 9.6 2.8.3 6.7.2 8-3 2.2-4.6.3-9.7-.3-14.4l1.6-.5c3 4.4 6.7 10.6 12.8 9.8 4-1.5 8.4-2.6 11.4-5.8 1-2.4-1.3-4.2-2.8-5.7-3.8-3.6-9-5-14-6.3a78 78 0 0 1-.5-10.8L378 71c1 4 2.4 8 1.8 12-3 3.6-7 6.4-10.6 9.7 3.4 3 6.4 6.3 9.3 9.7 3.6 4.6 11 5.7 15.6 2 2.3-1.7 6.4-1.5 7.2-4.8.3-2.4-.2-5-.3-7.3 2.2 2 3 4.7 4.7 7 2 2.2 6 1.2 7-1.5.4-2.7 0-5.5.1-8.3 2.3 1.7 3 4.8 4.8 6.8 2.2 1.8 5.8 1 6.8-1.8.4-2.8-.1-5.6.1-8.4 2.6 2 2.4 6 5.5 7.4 4 .5 7.8-1.5 11.2-3.3 2.3-2.8 1.5-6.8 2-10.2m11-3.8c-1.4 1-1.7 3-1.5 4.8.4 4 2.3 8.2 5.6 10.7 1.6 1.4 4.5 1.2 5.3-1 1.2-4.8-1-9.8-4.2-13.2-1.3-1.3-3.5-2.6-5.2-1.3zM734 106c3.3-3.5 7-7.6 12-8 6 1 9.3 6.8 10.4 12.2.7 3.4-1.5 6.5-3.4 9-2.6 3.5-7.3 6.2-11.7 4.7-5.7-2-10.4-6-16-8-2.7.4-4.2 3-5 5.3l-7 18c-1 3-4.4 3.2-7 4 2.2-7 5.5-13.7 8.2-20.6 2.6-5.8 4.5-12.4 9.7-16.5 3-2.4 6.7-1.4 10-.3m4 2.3c4 3.2 8 7.4 13.5 7.4a16 16 0 0 0-8.7-9.9c-2-.8-3.4 1.4-4.8 2.5zM321 98.5l7.6 2.3a66 66 0 0 1-2.4 7.6L319 106l2-7.4zm203 8.5l5.4-5.7 5.6 5.5-5.4 5.6-5.5-5.4zm244 1c1.7-4.4 7.3-4.6 11-6-1.6 6.4-5.6 11.8-8.2 17.7-2 4.5-5 8.6-5.3 13.6 1.5 2.4 4.3 3.4 6.6 4.8 3.3 1.6 6.3 3.8 10 4.5 1.5.5 3.4-.7 3.4-2.3 0-4-2.6-7.3-5-10.3 5.5-2.4 12.2-1.7 17.2 1.5 3.4 2 5.2 7.4 2.2 10.6-2.8 3.3-7.4 2.2-11 3l-.7 1.4c1.8 2 4.4 3 6.7 4 3.7 1.6 6.8 4.4 10.4 6.2a60 60 0 0 0 10.7-23.6c4.6-1.2 9-3.2 13.5-5l-5 18-4.4-2.5-8 11.2c7.7-1 16-2 23.2 1.5 4 1.8 5.5 7.4 3 11-1.8 3.2-5 5.2-8.3 6.7l4 3.5c.8 3.5 6 5.3 8 2 3.8-5.4 6.4-11.6 9.6-17.4.7-1 1-2.4 2.2-2.8l12-2.4-5.3 14.4-4-1.4c-6 7.4-10.3 16.4-18.2 22-3.3 2.5-8 2.4-11.4.2-2.8-1.5-4-4.6-6-6.8-2-2.3-3-5.3-3.7-8.2a20 20 0 0 1-12.9-2.5c-6-3.7-11.3-8-17.4-11.5-4-2.4-6-7.4-4.8-12-5.4 2.2-12 3-17.2 0-4.2-2.2-9-5-10.2-9.8-.5-4 1-7.7 2.5-11.2l10.2-22.2m41 51c3 3.3 7 5.5 10.7 8 2.6 1.5 6 3.8 8.8 1.4 2.4-1.6 1.3-5-.7-6.5-5.3-4-12.5-3.7-18.8-3zM366 144l2.4-6.2 6.3 2.5-2.5 6-6.2-2.4z"/><path d="M360 141l6.3 2.5-2.6 6-6-2.5 2.4-6.2zm-124 28c1-1.4 2.8.2 4 .5 7.8 3.6 14.5 10.5 16 19.2 1.5 6.6-2 14.3-8.3 16.8-3.3 1.4-6.8-.1-9.8-1.4 1 4 1.2 8.7-1.6 12-3 4.5-9 3.6-13.2 1.8 1.2 3.8 2 8.5-1 11.8-2.8 4-8 3.8-12.3 3 2 3.4 2.7 8.3-.4 11.3-3.4 3.6-8.7 3-13.2 3.4.8 3.7 2.4 8 0 11.4a34 34 0 0 1-9.5 9.4c-4.3 2.4-9.3.2-13-2.5L153 250.5c-4.2-2.4-4-8-4-12.2l.7-.3c8.5 6 16 13.4 24.7 18.7 2.7 1.8 5-1.2 6.6-3 2-2.4 4.7-5 4.2-8.2-2-5.3-7.3-9-7.2-15.2-.6-6 6.2-10.4 11.7-9 5.3.5 10.4 4.5 15.7 2.7 3.7-2.2 8.3-5.8 7-10.7 0-4.2-3.3-7-4.7-10.7l1-1c4.5 3 9.3 7.3 15.2 5.6 1.5-2 4-4 3.6-6.8.4-4.4-2.2-8.2-4.2-12l1.2-1.8c3.7 3.6 8.5 8 14 6.7a39 39 0 0 0 9.1-6.9c1-1 2.3-3 .5-4-3-2.2-6.8-1.7-10.2-2-.7-4-2.4-8-2.3-12m-49 58.8c-1 2.7 1.4 4.8 3.2 6.3 3.6 3 9 4.7 13.3 2 .2-5.2-5-8.6-9.4-9.7-2.3-.6-5.7-1-7 1.4z"/><path d="M867 171l16.3-1c-1.2 2.2-2.7 4.3-4.4 6.2l-23 24c-3.5 2.8-7 6-11.6 6.8.6-4 3-7.6 5.2-11l17.5-25zm-647 4l6.6.5-.3 6.5-6.6-.3.3-6.7z"/><path d="M213 181l6.7.7-.7 6.5-6.4-.6.4-6.7zm51 17l6.7 1-.7 6.4-6.6-.6.6-6.7zm-8 12l.7-6.7 6.7 1-1 6.4-6.5-.8zm603 20c3.3-7 10-11.3 17.2-13.7 1.6-.4 3.4-1.5 5-.5.2 1.8-2 2.2-3 3-3.8 1.8-8 4.5-8.4 9 0 5.8 4 10.6 8.2 14.3 3.6 3 7.4 6.6 12.4 7 1.2-.2 2.7-.7 2.7-2.2.6-3.4.3-7 .4-10.3l11.4-3c.1 5.8-3 11-6.6 15.3-5 5.2-11.6 9.5-19 9-7.6-.6-14-5.8-18-12-3.2-4.6-4.4-10.8-2-16zm26-8l8 .2-.4 7.8a350 350 0 0 1-7.9 0c0-2.6.1-5.3.2-8zm-649 3l6.8.3-.3 6.6-6.6-.2V225zm-7 7l6.7.3-.3 6.6-6.6-.1V232zm681 21c4.4-3 8.7-7 14.4-7 5.6 0 10 6 8.7 11.3-1.3 5-5.4 8.3-9 11.7 2.6 2.5 4.3 6.5 8 7.3 5.7-.4 11-4.7 17-2.7 4.6 1 7.2 6.4 6 10.8-1.3 5.6-6 9.5-7.8 14.8-1 3 1.4 5.7 3 8.2 1.8 2.6 3 6 6 7.3 1.3 0 2.7-.7 3-2 1.4-3.3 1-7 .6-10.5 6 .8 11.4 5 14 10.3 2 4 .1 10-4.8 10.3-4 1-7-3.7-10.8-3.2-.8 1.7 1 3.3 1.6 4.8 2.7 4 4.2 8.4 6.6 12.4 1.7.4 3-.8 4.6-1.4a58 58 0 0 0 16.8-13.2c4.6 1.3 9.4 1.6 14.2 2.6-4.2 4.4-8.8 8.6-13.2 12.8l-2.7-4.2L974 339c7.2 3 15 6.3 19.4 13 2.6 3.7.8 9.4-3.3 11-3 1.7-6.7 1.7-10.2 1.4 2.2 5.4 3 11.7 7.4 15.8 3.8-2 4.8-6.4 6-10.2 4.2.1 8.4.4 12.6.8-.6 3.7-3.8 6-6.5 8.4-6.6 5.4-16.4 7.7-24.4 4-7.8-4-10.2-14.4-7.4-22.2-4.3-2-8-5-10.2-9l-9-19c-2-4-.4-8.7 2.5-11.8a23 23 0 0 1-14.8-7.9c-1-3.4.3-7 1.8-10-3.7.6-8.3.2-10.5-3.3-3-4.3-.6-9.6-.2-14.2-3-.1-6.5.4-9-1.5-2.5-2-4.3-4.5-6.2-7-5.5 3.6-12.3 5.6-18.8 4-2.7-.7-4.7-3-5.6-5.5-1.8-4-2.3-8.6-2-13a55 55 0 0 0 16.6 9.4c2 .8 4.3 1 6.5 1-2.4-3.6-6-6.7-6.6-11.2.5-4.4 4.5-7 7.8-9.3m5 2.4c1 4 4 7 6.8 9.8 3-3.4 2.7-10.4-1.7-12.4-2.3-1-4 1-5 2.6m29.8 27.3c-4.3 2-8 6-8.6 10.6-.4 1.7.7 3 2.3 3.7 5.7-.4 10.4-5.4 11.6-10.8 1-3-2.8-5.2-5.3-3.5m24 58.3c2.4 5.2 4.5 10.6 7.6 15.4 1.3 2.2 4 3.6 6.5 2.4 2.4-1.6 1.8-5 .5-7.2-3.3-5.3-9-8.4-14.7-10.6zM99.8 307a20 20 0 0 1 5.5 2c11.5 6.2 23.2 12.4 33.2 21 2.3 2 4.8 4.2 5.5 7.3-4 0-7.6-1.4-11.3-2.7-9.5-3.6-19-7.4-28-12L100 307zm11.2 30c6.2-1 12.2 2 17.6 4.7 4 2.2 8 6 7.6 10.7-.6 4-5 4.8-8.3 5 1.8 2.5 3.8 5.6 2.2 8.7-1.5 3-5 2.2-7.8 2 3.3 4 3.2 9.4 1 13.7-2.2 3.5-6.5 4.2-10.2 4.4 2.2 2.6 4.6 5.6 4.3 9.2 0 3.3-1.8 6.3-4 8.5 4.6 1.7 9.4 3.6 13 7.2 2.3 2.3 3.8 6 2.5 9a35 35 0 0 1-6.6 12.5c-3.5-7.7-5.8-16-10-23.4-1.6-3-5.5-1.5-8-.6-2.3.7-4.5 2.7-7 2.2a48 48 0 0 1-8.4-9l10.3-2.4c3-2 4.2-5.8 4.6-9.3-1-5-5.2-8.2-9.3-10.4-1.4-.3-.5-2-.6-2.8 5 1.4 11 3 15.6-.6 1.5-3 3-6 3-9.2-.2-4.2-5.7-4.5-6.6-8 2.8.6 5.4 2 8.3 2 3.5-.1 5-5 2.5-7.3-1.6-2-5.3-2.5-5.6-5.5 3.5.8 7.3 3.8 10.8 1.5 1.8-1.8 3.2-4.8 2-7.3-2.4-.5-4.7.8-7 1.6a48 48 0 0 1-5.7-7.2zm850 42l6.3 2.6-2.7 6.2-6-2.6 2.5-6zm-834 8l6.2-2.6 2.6 6-6.2 2.6-2.6-6z"/><path d="M964 388l6.3 2.4-2.6 6-6-2.2 2.3-6.3zm-840 7l6.2-2.4 2.4 6-6 2.6-2.7-6.3z"/><path id="A" d="M986 414c2.4-2.5 21-7 25-4 5.7 2.4 7.2 11.2 2.3 15-9 7.2-30.8 12.7-42.8 6.4-8-3.8-5-14.6-2-21 5 7.6 10 16 17.3 18.4-1-4.2-3-8.6-1.6-13m14 .3c-.3 3.5 1.4 6.8 2.6 10a9 9 0 0 0 4.2-10.8c-1.3-3-6.2-2.5-6.8.8z"/><path d="M57 412c5.3.7 10.3 2.5 15.4 4 9 2.8 18.2 6 26.6 10.5 2.8 1.6 5.8 3.3 7.5 6.2-5 1-10.3 0-15.3-.7l-23-4.4c-1.4-.5-3.3-.5-4-2L57 412zm-11.4 53h32.2c-24 124 13 263 83.5 359 144 194 384 245 587 152 203-96.4 298-303 267-511h32.2c7.8 50 8.6 101 1.4 151-23.7 158-115 289-246 367a501 501 0 0 1-248 69.4c-196 3.2-361-103-450-260-56.7-99.3-74.6-217-58-327zM525 560c10 8 15.8 20.3 17.7 32.8 1.8 16.7-9 25-24.7 22.5a33 33 0 0 1-26-47.4c5.7-17 20.8-17.8 33-8zm403 60c1-8 1-16 2.7-23.8l10.6 8c.7 5.8-.7 11.6-.8 17.4 8.7-.4 18 .4 25.3 5.7 7.8 5.3 11.4 16.7 6.7 25-2.7 3.4-7.4 4.2-11.5 4.6 2 2 3.6 4.2 4.2 7 1 3.8-1.2 7.7-4.3 10-3 2.4-7.3 2.7-10.6 4.7 1.8 3 4.3 5.8 4.2 9.5-.1 4.4-2.3 9-6.3 11-2.7 1.5-5.8 1.5-8.8 1.6 4 4 6.3 10.5 3 15.7-2.6 4.8-8.3 6.2-13.4 6 1.8 2.3 3.8 4.6 4.4 7.6 1.3 5.6-2.3 11.4-7 14.2-3.2 1.8-7 1.2-10.4.7l-15-2.6c0 4 .6 7.7 2 11.4 4.7-1.8 8-6 12-8.7 3.5 3.4 6.7 7 9.5 11-4.7 3.6-9.6 7.6-15.5 8.6a38 38 0 0 1-13-9.5c-2.6-4.4-3-9.8-4.5-14.6-2.4-.5-5-.6-7.2-1.6-2.5-3-3.7-6.8-5.4-10.2 11 .2 21.3 4.2 32.2 4.7 4.4.4 7.8-4.6 6.2-8.6-1.8-5.4-6.6-9-11.3-11.7l1-2.2c5.4 1.4 11.3 3.4 16.6 1 4-2 5.3-7.5 2.7-11-2-4.4-6.4-6.6-10-9.5l.6-2c5 1 10 3.2 15 1.6 4.4-.8 6.8-5.6 6.3-9.7-.6-2.5-3-4-4.7-5.6-4-3-8-6.4-9.2-11.5-1.5-5.2 2.2-10.7 7.2-12.4 6-2 12.8-.1 19-1 4.3-1 6.4-5.5 8-9.2 1-2.6 2.4-5.5 1.7-8.3-.5-1.8-2.4-2.4-4-2.5-7-.4-13.5 3-20 5.7l-8.5-8c-.8-2.6.1-5.3.2-8m10.2 35.2c-2.6.3-5.5 3-4 5.7 2.7 3.8 7.6 5 12 5.4 3 .1 7.2-.4 8.6-3.7.2-2-1-3.6-2.6-4.6-4-2.8-9.2-4-14-2.8zM107 612a63 63 0 0 1 23.9-1.5c1.6-.3 3 2.7 1 3-4 1-8.5.4-12.5 1.8-3.5 1-7 3.6-7.2 7.5-.3 6.4 2.5 12.4 4.4 18.4 2.3 5.6 4 12 8.6 16.2l1.3-2.3c-.5-5.6-3.4-10.6-4-16-.4-2.5.6-5.5 3-6.6 3.3-1.6 7.4-2.5 10.8-.6 3.2 1.5 4.4 5 5.6 8 2.8 8 5 16 7.5 24 1.5 5.3 8 6.2 12.7 6 2.7.2 6.2-2 8 1-4.3 2.6-9.4 4.2-12.3 8.6-2.7 3.3-2.2 9 1.5 11 5 3 11 2 16.5 1.5 1 1.4.5 2.8-1.2 3.2-4.2 1.7-8.4 4.3-10.7 8.4-2 3.8-.3 9 3.2 11 3.8 1.3 8 .2 12 .4 4-.2 8.5 1.4 11.2 4.6 3 3.8 2.6 9.4 0 13.3-3.3 4.7-8.4 7.5-12.2 11.8-2.3 2.8-2 6.7-1 10 1.5 5 3.3 10 5 15 1 3.2 3.2 6 5.8 8 .8.8 2 1 3 .8.8-2.6.1-5.3 0-8-.4-3.5-.3-7.4-2.4-10.4-2-2.2-5-2-7.7-2.5l.5-2c5-1.7 10.4-3.6 15.6-2 4 1.4 5.6 6 6 10 .8 7 2 14.2 2.5 21.4a126 126 0 0 1-13.4 2.5c-1.7-2.2-3.2-5-6-6-5.4-2-11.4-2.6-16.6-5.4-6.2-4-7.7-11.8-9.8-18.4 1-4 2.8-7.7 6-10.4-4.7-.1-10.2-2.5-11.2-7.6-1.3-4.7 1.2-9.2 3.6-13 .5-1 1.7-2.6-.2-2.8-2.8-1-6-1.5-8-4-3-3.3-4.4-8.2-3-12.5 1-3 3.3-5 5.5-7-5.2-.6-11-3-12.5-8.4-2-5.6 1.2-11.2 5.6-14.6-5-.6-10.6-2.7-12.3-7.8-2.5-5.4 4.6-8.6 4.6-13.8a40 40 0 0 0-3.8-17.1c-.3-1.6-2-1.5-3.3-1.7-.6 7 4.2 13.6 2.7 20.6-1.4 3-5.2 3.3-8.2 3.7-9.7 1-18.6-5.4-23.2-13.4-4-7-7-15-6.2-23 .5-6.3 5.7-11 11.5-12.8m71.3 114c-4.4 1-8.6 3.7-11.2 7.5-1 1.5-1.5 3.6-.7 5.3 2.3 2.2 5.8 1.5 8.6.6a16 16 0 0 0 9.8-9.1c1-4-3.5-5.5-6.5-4.4zM555 613c8-2 15.5 3 22.4 6.4 22.8 10.3 50.4 81.6 42.7 111-2 9.7-6 19-11.4 27.2-6.3 7.5-17-2.6-16.2-9.2-1-5.5 4-9 5.3-14 3.3-10.5 5.6-22.3 1.3-33-5.7-12.2-21.8-22.4-32.2-16.8-6.5 2.7-11.5 8.6-12.8 15.5a56 56 0 0 0 4.3 29.2c.7 2.2 2 4.3 1.6 6.7l-35.5 168c-1.4 10.2-4 17.3-11.8 12.2-3.4-3-2.6-7.7-2.6-11.4-1-38 3.4-106-8-131-1.7-5.4-6.6-9.3-7.3-15-2.2-8.4-5.3-23.5-12.8-27.6-6-1-14.3.6-15-7.4l3.8-72a47 47 0 0 1 34.2-29.6c9.7-2.3 19.2 4.3 29 1.4 8-1.5 13-8.8 20.7-11zm-372 46l8.2 4a128 128 0 0 1-4.4 8.4l-8.2-4.4 4.4-8zm391 31c13.2-2.8 21 8.7 21.7 19.7.4 8.4-2.8 16.6-7.6 23.3-14.3 17.2-25.5-12.3-25.2-27.5a13 13 0 0 1 11.1-15.6zm-449 13l3.4-7c2.3 1 4.6 2 6.7 3.5-.2 2.6-2.4 4.8-3.5 7L125 703zm770-3l7.5-2.3 2.5 7-7.4 2.6-2.7-7.3zm61 3a127 127 0 0 1 7.6-2.6c1 2.4 1.7 5 2.4 7.3l-7.2 2.7-2.8-7.4zm-825 4a196 196 0 0 1 7.1 3.5l-4 7-6.6-3.6a95 95 0 0 1 3.4-7zm760 4a122 122 0 0 1 7.5-2.6l2.6 7.3-7 2.6-3-7.2zm60 2l7.6-2.5a277 277 0 0 0 2.4 7.2 49 49 0 0 1-7.4 2.6L951 713zm-375 28c5.4-.7 10.4 3.5 11.8 8.5 1.8 6 4.4 12.7 10 16.2 3.6 2.4 8.8 2 12-1.2 3.7-3 4.8-7.8 8.3-11 3-1 4 2.4 4.2 4.8l5 51.2c-2.8 4.7-6.6 9-8.8 14l-5.7 84c.3 7-5 9.7-6.6 2.5l-9.3-40.6c-1-2-2-14.4-6-13.5-2.5 3-3.5 7-4.7 10.6l-14.2 42c-1.6 7.2-8.2 7.8-8.8 1-.3-13.4 1.3-26.7 2.3-40 .4-10.7 1.3-21.8-2.6-32-2-5.3-6.8-8.7-9.2-13.7-2-5-1-10.2-.2-15.3 9-39 5.8-65.4 22.5-67.6zm-369 17l4.4-8 8.2 4.2-4.4 8-8.2-4.4z"/><path d="M862 751c3.6 1.4 6.2 4.3 9 6.8a253 253 0 0 1 24.4 24.6c3.5 4.7 7.6 9.4 9 15.3-2 0-4-.5-5.7-1.6a283 283 0 0 1-32.2-22.8c-1.6-1.4-4-2.6-3.7-5-.4-5.7-1-11.4-.7-17zm-5 38c3-2 6.7-2.2 10-1.6 8.3 1.3 16.2 5.6 21.3 12.2 2.4 3.2 4 7.4 2.7 11.4-1 3-4 5.2-7 6.2-3.5 1-7.2.7-10.8 1 .5 3.7 2.5 7.5 1 11.2-1.4 3-3.7 6.4-7.3 7-5.8 1-11.4-1.3-17-2.8 2 6.7 5 13.6 3.3 20.7-1 4.7-5.4 9.4-10.6 8.3-5.3-1.4-9.4-5.4-13.3-9-2.2-2.4-5.2-4.5-6.3-7.7.8-3.5 4 .1 5.8 1 5.5 3.6 11.8-1.3 14-6.4 1.7-3 2-7.2-1.2-9.2-6.5-3.6-14.4-3.3-21.2-5.8-1.5-4-3.4-8-3.6-12.2 4.3 0 8.2 2.2 12.2 3.6 7.5 2.7 14.8 6.4 22.7 7.7 5.5 1 10.8-5.6 8-10.6-2.4-4.7-7-8.3-7.6-13.8-.7-4 1-8.5 4.4-11m7.3 4.3c-1.6 1-2 3-1 4.6 2.8 5 8.4 8 14 8.5 2.6.4 5.8-1.6 5.3-4.5-1.8-4.4-6-7.5-10.5-8.7-2.4-.7-5.3-1.5-7.6 0zM215 821c4-3.2 8.3-6.5 13.6-7 4-.3 7 2.5 9.5 5 5.2-2.2 11.6-4.8 17-2 5.3 3.6 5.8 11 5 16.7-.7 5.3-6 8-10.4 10a12 12 0 0 1-13.6-2.4c-4.3-4.8-7.4-10.6-11.6-15.4-2.7-2.3-6.4 0-8.6 2l-19 17-7.6-.5c1-1.4 2-2.8 3.5-4l22-19.5m26 2.3c2 4.4 4 9 7.2 12.6.8 1.2 2.4 1.3 3.7 1.7.2-5-1-10.3-4-14.2-1.8-2.2-4.6-1-6.8-.1zm552 4.7a16 16 0 0 1 5.4 3.4c10 9 20 18 28.5 28.5 3.4 4.5 7.2 9 8.4 14.7-4 .2-7.3-2.7-10.6-4.6a353 353 0 0 1-27-19.8c-1.4-1.4-3.8-2.5-3.7-4.7-.3-5.8-1-11.7-1-17.5zm-521 8c1.2-1.2 2.8-2 4.4-1.7 3.3 0 6.8 0 9.8 1.6l-20 17.4c-3.2 3-7.4 5.6-9 10 1.6 5 5.3 9 9.7 11.7 6.2 1.5 10.7-4.7 16.5-5.4 6.2-1.6 13.7 3 13.8 9.8 0 6.8-3.3 13.2-7.5 18.4-4 4.7-9.7 9.3-16.3 9-3.5 0-6.6-2.3-8-5.5-2.5-4.4-.7-9.4-.5-14-4.5.5-9.7 1.6-13.2-2-4.6-4.5-9.5-10-9.6-16.8.8-6.3 6-10.7 10.5-14.8L272 836m13 44.8c-4.7 2.6-8 7.4-9 12.7-.5 2.6 1.8 5.8 4.7 4.8 5.3-1.7 9-6.7 10.4-12 .4-2 .7-4.2-1-5.6-1.4-1.5-3.7-1-5.2 0zM786 864a47 47 0 0 1 20.3 1.1c5 1.5 8.7 5.3 12.2 9 3 3.4 6.5 7.6 5.7 12.6a48 48 0 0 1-6.7 19c-2 3.2-6.2 4.6-9.7 3a47 47 0 0 1-15.6-13.2c-1.4-1.3.5-2.5 1.3-3.4 2.6 1.8 5.5 5 9 3.6 2.8-1.4 4-4.7 5.4-7.4 1.7-3.8 4-8 3-12.3-3-3.4-8.3-2.6-12.3-1.8-4.5 1-10.4 1.5-12 6.7-3-3.5-6-8-5.6-12.8.1-2.5 2.8-3.4 5-3.7zm-473 21c1.8-2 4.7-1 7-1 4.6.6 9.3.2 13.8 1.7-2.8 3.6-6.5 6.3-10 9.2l-31.6 22.4a27 27 0 0 1-10.8 3.5c.3-3.2 2.6-5.4 4.4-7.7a295 295 0 0 1 27.1-28zm176 52c4 3 14.6 42.5 7.5 52.5-1.2-3-1.4-6-1.7-9.3a107 107 0 0 0-8.2-29.1c-2-4.7.4-9.8 2.4-14zm37 11c4.4-2 4.7-7.8 8.3-10.6.8 2.7.1 7 3.7 7.8 4 .8 4.5-4.2 6.2-6.6 1 5.7.5 12.4-3.2 17-2.8 3-7 .5-9.6-1.4-2 2-4.3 3.3-6.8 4l2.7 21.3c-.1 3.5-.2 7.2-2 10.3l-12-42.3a34 34 0 0 1 3.5-8.4c2.6 3.3 4.5 8.6 9.4 8.8zm90-10c.1 4 1.8 8.2-.6 11.7-6.3 12-8.3 25.6-13.6 38l-15.2-38.4a54 54 0 0 1 3.3-10.4c5.7 10 9 21 13 31.7 5.2-10.4 6.8-24.5 13.3-32.6zm-60 9l4-8a66 66 0 0 1 17.5 25.8c2.3 6.4 2.8 14.2-1 20.2-3 5-12 4.2-13-2-.8 2-1.6 4.5-3.8 5.4-2.5 1-5.7.6-7.5-1.5-8.7-9.8.5-27.3 6-37l-2.2-3m7 6c-5 5.8-10 12.2-11 20-.2 3.4 3.3 7.7 7 6.3 2.5-1.8 3.3-5 4.7-7.6 1 2.2 1.7 4.8 3.6 6.5 4.3 2 10-2.5 8.4-7.2-2-7-6.2-14-12.8-17.8z"/><path id="B" d="M641 353l165 162v192l-69.5 92.6 12.5 119-75 39-35.2.1v-238l57-59v-91l28.4-21.2.1 81.8 16-7.2V547l-99.7-139v-55z"/><use transform="rotate(252 547 550)" xlink:href="#A"/><use transform="rotate(228 548 544)" xlink:href="#A"/><use transform="matrix(-1 0 0 1 1096 -.12)" xlink:href="#B"/><g id="C"><path d="M484.3 352.6c48.8 16 102.2-4.7 127.4-49.5s15.2-101.2-24-134.6a118 118 0 0 1-103.5 184.1"/><path d="M622 332a90 90 0 0 0-23.1-165.2 118 118 0 0 1 23.1 165.2m-73 40V161c3.6 5 8.4 9 14 11.7l-4.7 186.6z"/><path d="M546.6 153.7l2.4 2.4a17 17 0 0 0 29.7-16 16 16 0 0 1-29.7 4.8"/></g><use transform="matrix(-1 0 0 1 1099 0)" xlink:href="#C"/></g></svg>